#Comment line ignore any data following # character 
#Hierarchical Translation and Rotation (.htr) file 
[Header]	
#Header keywords are followed by a single value 
FileType HTR		#Single word string
DataType HTRS		#Translation followed by rotation and scale data
FileVersion 1		#integer
NumSegments 64		#integer
NumFrames 3		#integer
DataFrameRate 30		#integer, data frame rate in this file
EulerRotationOrder ZYX
CalibrationUnits mm
RotationUnits Degrees
GlobalAxisofGravity Y
BoneLengthAxis Y
ScaleFactor 1.00
[SegmentNames&Hierarchy]
#CHILD	PARENT
Pinger_Root GLOBAL
Pelvis Pinger_Root
L_Hip Pelvis
R_Hip Pelvis
Rear_Leg01 Pelvis
Spine1 Pelvis
L_Leg01 L_Hip
L_Leg02 L_Leg01
L_Leg03 L_Leg02
L_Foot L_Leg03
L_Toe1_01 L_Foot
L_Toe2_01 L_Foot
L_Toe3_01 L_Foot
planeAlignerLeft L_Foot
L_Toe1_02 L_Toe1_01
L_Toe1_03 L_Toe1_02
L_Toe2_02 L_Toe2_01
L_Toe2_03 L_Toe2_02
L_Toe3_02 L_Toe3_01
L_Toe3_03 L_Toe3_02
planeLockWeightLeft planeAlignerLeft
R_Leg01 R_Hip
R_Leg02 R_Leg01
R_Leg03 R_Leg02
R_Foot R_Leg03
planeAlignerRight R_Foot
R_Toe1_01 R_Foot
R_Toe2_01 R_Foot
R_Toe3_01 R_Foot
planeLockWeightRight planeAlignerRight
R_Toe1_02 R_Toe1_01
R_Toe1_03 R_Toe1_02
R_Toe2_02 R_Toe2_01
R_Toe2_03 R_Toe2_02
R_Toe3_02 R_Toe3_01
R_Toe3_03 R_Toe3_02
Rear_Leg02 Rear_Leg01
Rear_Leg03 Rear_Leg02
Rear_Leg04 Rear_Leg03
Rear_Foot Rear_Leg04
planeAlignerCenter Rear_Foot
Rear_Toe1_01 Rear_Foot
Rear_Toe2_01 Rear_Foot
Rear_Toe3_01 Rear_Foot
planeLockWeightCenter planeAlignerCenter
Rear_Toe1_02 Rear_Toe1_01
Rear_Toe1_03 Rear_Toe1_02
Rear_Toe2_02 Rear_Toe2_01
Rear_Toe2_03 Rear_Toe2_02
Rear_Toe3_02 Rear_Toe3_01
Rear_Toe3_03 Rear_Toe3_02
Back_Bone Spine1
Head Spine1
Motor_Bone Back_Bone
Ping_Mechanism Back_Bone
BN_LookIK Head
bottomMouth Head
L_Mouth01 Head
L_mouthFront Head
mouthGun Head
R_Mouth01 Head
R_mouthFront Head
TopMouth Head
weapon_bone Head
[BasePosition]
#SegmentName Tx, Ty, Tz, Rx, Ry, Rz, BoneLength
Pinger_Root 0.000000 0.000000 0.000000 -90.000000 0.000000 0.000000 10.000000 
Pelvis 0.000000 0.000000 0.000000 0.000000 0.000000 0.000000 10.000000 
L_Hip 0.000000 0.000000 0.000000 0.000000 0.000000 0.000000 10.000000 
R_Hip 0.000000 0.000000 0.000000 0.000000 0.000000 0.000000 10.000000 
Rear_Leg01 0.000000 0.000000 0.000000 0.000000 0.000000 0.000000 10.000000 
Spine1 0.000000 0.000000 0.000000 0.000000 0.000000 0.000000 10.000000 
L_Leg01 0.000000 0.000000 0.000000 0.000000 0.000000 0.000000 10.000000 
L_Leg02 0.000000 0.000000 0.000000 0.000000 0.000000 0.000000 10.000000 
L_Leg03 0.000000 0.000000 0.000000 0.000000 0.000000 0.000000 10.000000 
L_Foot 0.000000 0.000000 0.000000 0.000000 0.000000 0.000000 10.000000 
L_Toe1_01 0.000000 0.000000 0.000000 0.000000 0.000000 0.000000 10.000000 
L_Toe2_01 0.000000 0.000000 0.000000 0.000000 0.000000 0.000000 10.000000 
L_Toe3_01 0.000000 0.000000 0.000000 0.000000 0.000000 0.000000 10.000000 
planeAlignerLeft 0.000000 0.000000 0.000000 0.000000 0.000000 0.000000 10.000000 
L_Toe1_02 0.000000 0.000000 0.000000 0.000000 0.000000 0.000000 10.000000 
L_Toe1_03 0.000000 0.000000 0.000000 0.000000 0.000000 0.000000 10.000000 
L_Toe2_02 0.000000 0.000000 0.000000 0.000000 0.000000 0.000000 10.000000 
L_Toe2_03 0.000000 0.000000 0.000000 0.000000 0.000000 0.000000 10.000000 
L_Toe3_02 0.000000 0.000000 0.000000 0.000000 0.000000 0.000000 10.000000 
L_Toe3_03 0.000000 0.000000 0.000000 0.000000 0.000000 0.000000 10.000000 
planeLockWeightLeft 0.000000 0.000000 0.000000 0.000000 0.000000 0.000000 10.000000 
R_Leg01 0.000000 0.000000 0.000000 0.000000 0.000000 0.000000 10.000000 
R_Leg02 0.000000 0.000000 0.000000 0.000000 0.000000 0.000000 10.000000 
R_Leg03 0.000000 0.000000 0.000000 0.000000 0.000000 0.000000 10.000000 
R_Foot 0.000000 0.000000 0.000000 0.000000 0.000000 0.000000 10.000000 
planeAlignerRight 0.000000 0.000000 0.000000 0.000000 0.000000 0.000000 10.000000 
R_Toe1_01 0.000000 0.000000 0.000000 0.000000 0.000000 0.000000 10.000000 
R_Toe2_01 0.000000 0.000000 0.000000 0.000000 0.000000 0.000000 10.000000 
R_Toe3_01 0.000000 0.000000 0.000000 0.000000 0.000000 0.000000 10.000000 
planeLockWeightRight 0.000000 0.000000 0.000000 0.000000 0.000000 0.000000 10.000000 
R_Toe1_02 0.000000 0.000000 0.000000 0.000000 0.000000 0.000000 10.000000 
R_Toe1_03 0.000000 0.000000 0.000000 0.000000 0.000000 0.000000 10.000000 
R_Toe2_02 0.000000 0.000000 0.000000 0.000000 0.000000 0.000000 10.000000 
R_Toe2_03 0.000000 0.000000 0.000000 0.000000 0.000000 0.000000 10.000000 
R_Toe3_02 0.000000 0.000000 0.000000 0.000000 0.000000 0.000000 10.000000 
R_Toe3_03 0.000000 0.000000 0.000000 0.000000 0.000000 0.000000 10.000000 
Rear_Leg02 0.000000 0.000000 0.000000 0.000000 0.000000 0.000000 10.000000 
Rear_Leg03 0.000000 0.000000 0.000000 0.000000 0.000000 0.000000 10.000000 
Rear_Leg04 0.000000 0.000000 0.000000 0.000000 0.000000 0.000000 10.000000 
Rear_Foot 0.000000 0.000000 0.000000 0.000000 0.000000 0.000000 10.000000 
planeAlignerCenter 0.000000 0.000000 0.000000 0.000000 0.000000 0.000000 10.000000 
Rear_Toe1_01 0.000000 0.000000 0.000000 0.000000 0.000000 0.000000 10.000000 
Rear_Toe2_01 0.000000 0.000000 0.000000 0.000000 0.000000 0.000000 10.000000 
Rear_Toe3_01 0.000000 0.000000 0.000000 0.000000 0.000000 0.000000 10.000000 
planeLockWeightCenter 0.000000 0.000000 0.000000 0.000000 0.000000 0.000000 10.000000 
Rear_Toe1_02 0.000000 0.000000 0.000000 0.000000 0.000000 0.000000 10.000000 
Rear_Toe1_03 0.000000 0.000000 0.000000 0.000000 0.000000 0.000000 10.000000 
Rear_Toe2_02 0.000000 0.000000 0.000000 0.000000 0.000000 0.000000 10.000000 
Rear_Toe2_03 0.000000 0.000000 0.000000 0.000000 0.000000 0.000000 10.000000 
Rear_Toe3_02 0.000000 0.000000 0.000000 0.000000 0.000000 0.000000 10.000000 
Rear_Toe3_03 0.000000 0.000000 0.000000 0.000000 0.000000 0.000000 10.000000 
Back_Bone 0.000000 0.000000 0.000000 0.000000 0.000000 0.000000 10.000000 
Head 0.000000 0.000000 0.000000 0.000000 0.000000 0.000000 10.000000 
Motor_Bone 0.000000 0.000000 0.000000 0.000000 0.000000 0.000000 10.000000 
Ping_Mechanism 0.000000 0.000000 0.000000 0.000000 0.000000 0.000000 10.000000 
BN_LookIK 0.000000 0.000000 0.000000 0.000000 0.000000 0.000000 10.000000 
bottomMouth 0.000000 0.000000 0.000000 0.000000 0.000000 0.000000 10.000000 
L_Mouth01 0.000000 0.000000 0.000000 0.000000 0.000000 0.000000 10.000000 
L_mouthFront 0.000000 0.000000 0.000000 0.000000 0.000000 0.000000 10.000000 
mouthGun 0.000000 0.000000 0.000000 0.000000 0.000000 0.000000 10.000000 
R_Mouth01 0.000000 0.000000 0.000000 0.000000 0.000000 0.000000 10.000000 
R_mouthFront 0.000000 0.000000 0.000000 0.000000 0.000000 0.000000 10.000000 
TopMouth 0.000000 0.000000 0.000000 0.000000 0.000000 0.000000 10.000000 
weapon_bone 0.000000 0.000000 0.000000 0.000000 0.000000 0.000000 10.000000 
#Beginning of Data. Separated by tabs
#Fr	Tx	Ty	Tz	Rx	Ry	Rz	SF
[Pinger_Root]
26 2150.145508 0.000189 0.000000 -0.000075 -0.000000 -0.000020 2150.145508
27 2211.894775 0.000195 0.000000 -0.000075 -0.000000 -0.000020 2211.894775
28 2268.629639 0.000200 0.000000 -0.000075 -0.000000 -0.000020 2268.629639
[Pelvis]
26 267.293243 1224.637695 4748.830078 37.107658 -70.858788 -53.180981 4911.473633
27 258.245026 1229.875000 4739.471191 38.002014 -71.156273 -52.119415 4903.250977
28 253.134277 1233.938599 4724.980469 38.134918 -71.899673 -50.408596 4890.001953
[L_Hip]
26 5.766392 125.831482 872.656799 -178.253311 -81.787758 87.381340 881.701050
27 5.766392 125.831482 872.656799 -178.253311 -81.787712 87.381248 881.701050
28 5.766392 125.831482 872.656799 -178.253342 -81.787758 87.381340 881.701050
[R_Hip]
26 5.765438 125.836372 -872.654907 -1.746690 81.787712 87.381248 881.699829
27 5.765438 125.836372 -872.654907 -1.746713 81.787666 87.381149 881.699829
28 5.765438 125.836372 -872.654907 -1.746678 81.787712 87.381248 881.699829
[Rear_Leg01]
26 -192.298416 -925.602966 -0.001907 165.068848 0.149877 -154.510361 945.367432
27 -192.298416 -925.602966 -0.001907 167.962906 -2.690457 -157.938263 945.367432
28 -192.298416 -925.602966 -0.001907 170.860291 -5.258392 -161.914642 945.367432
[Spine1]
26 290.604584 5.007505 0.000477 1.356794 -6.397196 39.224037 290.647736
27 290.604584 5.007505 0.000477 -0.152032 -5.482295 39.369305 290.647736
28 290.604584 5.007505 0.000477 -1.308212 -4.447694 39.047421 290.647736
[L_Leg01]
26 761.932007 -0.002384 -0.069261 93.522293 -21.203335 -99.070976 761.932068
27 761.932007 -0.002384 -0.069261 97.451569 -19.792128 -99.681679 761.932068
28 761.932007 -0.002384 -0.069261 102.366188 -19.257338 -99.842804 761.932068
[L_Leg02]
26 1441.140503 -0.000954 -0.000715 -1.369334 0.497047 -104.788826 1441.140503
27 1441.140503 -0.000954 -0.000715 -1.361551 0.461181 -103.233070 1441.140503
28 1441.140503 -0.000954 -0.000715 -1.354743 0.425117 -101.677315 1441.140503
[L_Leg03]
26 1686.963989 -0.000715 -0.000954 0.033296 -0.006874 101.522018 1686.963989
27 1686.963989 -0.000715 -0.000954 0.028007 -0.006676 102.860092 1686.963989
28 1686.963989 -0.000715 -0.000954 0.022723 -0.006355 104.198555 1686.963989
[L_Foot]
26 3041.570068 -30.715107 11.297464 -11.508378 7.500844 61.017727 3041.746094
27 3041.570068 -30.715107 11.297464 -12.401619 9.113584 59.706760 3041.746094
28 3041.570068 -30.715107 11.297464 -15.254707 11.029253 53.272720 3041.746094
[L_Toe1_01]
26 -188.216690 -224.732346 -21.137953 88.797935 -1.559055 -145.581085 293.899567
27 -188.216690 -224.732346 -21.137953 88.795212 -1.559940 -145.564560 293.899567
28 -188.216690 -224.732346 -21.137953 88.690346 -1.138420 -141.388870 293.899567
[L_Toe2_01]
26 200.746536 -219.926590 148.838394 -74.720398 -10.377420 -59.504929 332.896027
27 200.746536 -219.926590 148.838394 -74.722260 -10.352407 -59.546600 332.896027
28 200.746536 -219.926590 148.838394 -75.315552 -11.812461 -55.574879 332.896027
[L_Toe3_01]
26 188.832520 -219.859131 -191.078659 -109.766914 12.705476 -61.562115 347.140900
27 188.832520 -219.859131 -191.078659 -109.732635 12.682654 -61.491879 347.140900
28 188.832520 -219.859131 -191.078659 -108.930016 14.298316 -57.462326 347.140900
[planeAlignerLeft]
26 -78.691711 -810.475769 -0.007935 0.000000 -89.934387 -90.068069 814.287048
27 -77.870026 -811.162476 -0.008545 0.000000 -89.920876 -90.070709 814.891602
28 -78.574364 -809.460022 0.797421 0.000000 -89.925987 -90.073380 813.265076
[L_Toe1_02]
26 413.761139 0.000477 0.000000 0.001385 -25.845461 0.001385 413.761139
27 413.761139 0.000477 0.000000 0.001385 -25.830240 0.001385 413.761139
28 413.761139 0.000477 0.000000 0.001385 -25.815012 0.001385 413.761139
[L_Toe1_03]
26 464.317322 0.000358 -0.000089 0.003124 45.866215 0.003124 464.317322
27 464.317322 0.000358 -0.000089 0.003167 46.495251 0.003167 464.317322
28 464.317322 0.000358 -0.000089 0.003246 47.606430 0.003246 464.317322
[L_Toe2_02]
26 342.235809 -0.000477 0.000238 0.001184 -74.510422 0.001184 342.235809
27 342.235809 -0.000477 0.000238 0.001185 -74.394394 0.001185 342.235809
28 342.235809 -0.000477 0.000238 0.001182 -76.747421 0.001182 342.235809
[L_Toe2_03]
26 420.210846 -0.000715 0.000000 -179.944672 88.845802 -179.941177 420.210846
27 420.210846 -0.000715 0.000000 -179.932892 89.043045 -179.929398 420.210846
28 420.210846 -0.000715 0.000000 -179.994263 81.205856 -179.990753 420.210846
[L_Toe3_02]
26 329.270111 0.000954 0.000000 0.001180 -78.373787 0.001180 329.270111
27 329.270111 0.000954 0.000000 0.001180 -78.275848 0.001180 329.270111
28 329.270111 0.000954 0.000000 0.001178 -80.396126 0.001178 329.270111
[L_Toe3_03]
26 439.137451 -0.001907 0.000954 -179.984238 86.236618 -179.980743 439.137451
27 439.137451 -0.001907 0.000954 -179.983368 86.416023 -179.979874 439.137451
28 439.137451 -0.001907 0.000954 -179.995804 78.932083 -179.992294 439.137451
[planeLockWeightLeft]
26 1000.000000 0.000141 -0.000277 -0.011826 -0.004376 0.005620 1000.000000
27 1000.000000 0.000153 -0.000286 -0.011826 -0.004376 0.005620 1000.000000
28 896.000610 0.000000 -0.000114 -0.011826 -0.004376 0.005620 896.000610
[R_Leg01]
26 761.455627 -0.001907 -0.000358 68.423546 -31.069994 69.132553 761.455688
27 761.455627 -0.001907 -0.000358 75.577095 -32.791771 66.532166 761.455688
28 761.455627 -0.001907 -0.000358 82.756058 -32.173164 63.423824 761.455688
[R_Leg02]
26 1441.140625 0.000000 -0.000238 -0.493280 -0.038436 -133.728317 1441.140625
27 1441.140625 0.000000 -0.000238 -0.412298 -0.021550 -132.850449 1441.140625
28 1441.140625 0.000000 -0.000238 -0.251395 -0.008998 -126.932083 1441.140625
[R_Leg03]
26 1686.963989 0.000954 0.001431 0.034240 -0.016411 119.975235 1686.963989
27 1686.963989 0.000954 0.001431 0.023188 -0.010921 116.804489 1686.963989
28 1686.963989 0.000954 0.001431 0.011849 -0.006051 113.633736 1686.963989
[R_Foot]
26 3041.560059 -30.531288 -11.204481 24.534252 -27.285683 50.598530 3041.734131
27 3041.560059 -30.531288 -11.204481 22.043648 -23.438177 52.150547 3041.734131
28 3041.560059 -30.531288 -11.204481 19.933752 -19.953352 51.335159 3041.734131
[planeAlignerRight]
26 129.090820 -838.333740 -141.505142 0.000000 -89.923386 -90.052643 859.936951
27 56.836823 -769.227661 -146.194138 0.000000 -89.920876 -90.054550 785.056946
28 -77.350555 -640.896851 -147.193451 0.000000 -89.916069 -90.056450 662.116150
[R_Toe1_01]
26 -188.383347 -224.864899 21.052242 90.161835 4.280018 -149.640778 294.101532
27 -188.383347 -224.864899 21.052242 90.371918 3.731948 -156.258713 294.101532
28 -188.383347 -224.864899 21.052242 90.661743 3.036040 -158.882278 294.101532
[R_Toe2_01]
26 200.637817 -220.002121 -148.787384 -103.280258 2.796173 -60.504650 332.857574
27 200.637817 -220.002121 -148.787384 -102.456764 4.440691 -55.073292 332.857574
28 200.637817 -220.002121 -148.787384 -101.238914 7.329806 -46.023552 332.857574
[R_Toe3_01]
26 188.606735 -220.092957 191.126343 -64.781647 -21.002739 -71.262123 347.192566
27 188.606735 -220.092957 191.126343 -63.765369 -26.309793 -67.358376 347.192566
28 188.606735 -220.092957 191.126343 -63.272625 -35.356472 -61.131527 347.192566
[planeLockWeightRight]
26 999.999939 0.000000 -0.000362 -0.011823 -0.004379 -0.000027 999.999939
27 1000.000122 0.000000 -0.000358 -0.011823 -0.004379 -0.000027 1000.000122
28 1000.000122 0.000000 -0.000353 -0.011823 -0.004379 -0.000027 1000.000122
[R_Toe1_02]
26 413.762085 0.000477 -0.000119 0.001468 -16.159950 0.001468 413.762085
27 413.762085 0.000477 -0.000119 0.001430 -20.277437 0.001430 413.762085
28 413.762085 0.000477 -0.000119 0.001389 -25.312920 0.001389 413.762085
[R_Toe1_03]
26 464.317810 0.000000 0.001088 -179.996628 77.143349 -179.993103 464.317810
27 464.317810 0.000000 0.001088 0.000000 89.515022 0.003492 464.317810
28 464.317810 0.000000 0.001088 0.005362 64.713600 0.005362 464.317810
[R_Toe2_02]
26 342.234741 -0.000954 0.000238 0.001194 -68.760300 0.001194 342.234741
27 342.234741 -0.000954 0.000238 0.001194 -68.910164 0.001194 342.234741
28 342.234741 -0.000954 0.000238 -0.002341 -75.797913 -0.002341 342.234741
[R_Toe2_03]
26 420.210846 0.000715 -0.000268 0.010242 76.840111 0.010242 420.210846
27 420.210846 0.000715 -0.000268 0.010503 77.168602 0.010503 420.210846
28 420.210846 0.000715 -0.000268 -179.986862 84.210365 -179.990372 420.210846
[R_Toe3_02]
26 329.270355 -0.000477 -0.000954 0.001180 -78.173851 0.001180 329.270355
27 329.270355 -0.000477 -0.000954 0.001180 -77.861992 0.001180 329.270355
28 329.270355 -0.000477 -0.000954 0.001177 -81.038696 0.001177 329.270355
[R_Toe3_03]
26 439.137939 0.000238 0.001431 -179.981949 86.674217 -179.978455 439.137939
27 439.137939 0.000238 0.001431 -179.974442 87.588730 -179.970932 439.137939
28 439.137939 0.000238 0.001431 -179.996948 76.310730 -179.993423 439.137939
[Rear_Leg02]
26 1162.777710 -0.029802 0.005960 20.219727 -8.380923 -152.828629 1162.777710
27 1162.777710 -0.029802 0.005960 21.154385 -9.088753 -157.005859 1162.777710
28 1162.777710 -0.029802 0.005960 21.286478 -9.756137 -160.095596 1162.777710
[Rear_Leg03]
26 607.192505 -0.013351 -0.073195 0.009943 -0.006106 79.461800 607.192505
27 607.192505 -0.013351 -0.073195 0.009949 -0.006096 79.350861 607.192505
28 607.192505 -0.013351 -0.073195 0.009955 -0.006087 79.239937 607.192505
[Rear_Leg04]
26 995.874512 -0.020504 -0.011921 -0.044490 -0.013616 100.125237 995.874573
27 995.874512 -0.020504 -0.011921 -0.044429 -0.013812 99.618896 995.874573
28 995.874512 -0.020504 -0.011921 -0.044301 -0.014217 98.572502 995.874573
[Rear_Foot]
26 3096.176270 -0.067472 -0.041425 -129.891098 61.037643 27.539511 3096.176270
27 3096.176270 -0.067472 -0.041425 -130.964966 59.031071 27.700178 3096.176270
28 3096.176270 -0.067472 -0.041425 -132.717880 57.620796 27.123142 3096.176270
[planeAlignerCenter]
26 11.264722 31.145567 -825.972168 0.001908 -0.001367 161.239731 826.635925
27 12.528681 37.197865 -823.908508 0.001892 -0.001391 162.657867 824.842957
28 12.788543 42.651127 -817.738586 0.001876 -0.001415 164.077530 818.949951
[Rear_Toe1_01]
26 0.653352 83.966492 -371.173737 -0.657373 29.012960 69.809540 380.553192
27 0.653352 83.966492 -371.173737 -0.599696 28.960846 71.245178 380.553192
28 0.653352 83.966492 -371.173737 -0.543572 28.907492 72.679794 380.553192
[Rear_Toe2_01]
26 178.200760 -294.826019 -362.060547 -4.454823 53.045830 -98.435776 499.765686
27 178.200760 -294.826019 -362.060547 -4.114077 53.173332 -96.470261 499.765686
28 178.200760 -294.826019 -362.060547 -3.765307 53.293674 -94.498199 499.765686
[Rear_Toe3_01]
26 -153.359680 -308.780914 -362.060852 -6.309482 53.752354 -139.877625 499.952881
27 -153.359680 -308.780914 -362.060852 -6.080425 53.760872 -138.134369 499.952881
28 -153.359680 -308.780914 -362.060852 -5.851044 53.765247 -136.391144 499.952881
[planeLockWeightCenter]
26 1000.000488 0.000496 -0.000109 -0.011814 -0.004373 -0.000015 1000.000488
27 1000.000488 0.000496 -0.000106 -0.011814 -0.004373 -0.000015 1000.000488
28 1000.000488 0.000496 -0.000103 -0.011814 -0.004373 -0.000015 1000.000488
[Rear_Toe1_02]
26 379.707825 0.194073 0.000477 -0.004350 -33.559837 0.003045 379.707855
27 379.707825 0.194073 0.000477 -0.004350 -33.558849 0.003045 379.707855
28 379.707825 0.194073 0.000477 -0.004350 -33.557869 0.003045 379.707855
[Rear_Toe1_03]
26 500.129700 0.165701 0.000119 0.000826 69.878830 0.002602 500.129761
27 500.129700 0.165701 0.000119 -0.004937 69.034210 -0.001381 500.129761
28 500.129700 0.165701 0.000119 -0.004893 68.726944 -0.001335 500.129761
[Rear_Toe2_02]
26 340.494507 0.000238 -0.000954 0.001189 -72.436127 0.001189 340.494507
27 340.494507 0.000238 -0.000954 0.001187 -73.704285 0.001187 340.494507
28 340.494507 0.000238 -0.000954 0.001185 -74.972580 0.001185 340.494507
[Rear_Toe2_03]
26 433.103577 0.000000 0.000238 0.008469 74.058609 0.008469 433.103546
27 433.103577 0.000000 0.000238 0.009693 76.090721 0.009693 433.103546
28 433.103577 0.000000 0.000238 0.011534 78.309319 0.011534 433.103546
[Rear_Toe3_02]
26 340.494141 -0.000358 -0.000477 0.001183 -75.704330 0.001183 340.494171
27 340.494141 -0.000358 -0.000477 0.001182 -76.501587 0.001182 340.494171
28 340.494141 -0.000358 -0.000477 0.001181 -77.389229 0.001181 340.494171
[Rear_Toe3_03]
26 433.103577 0.001431 -0.000238 0.012517 79.239891 0.012517 433.103546
27 433.103577 0.001431 -0.000238 0.011906 80.957863 0.012345 433.103546
28 433.103577 0.001431 -0.000238 0.011112 82.678223 0.011989 433.103546
[Back_Bone]
26 1312.175781 -701.934692 0.000954 1.639940 -2.968003 -81.691750 1488.125488
27 1312.175781 -701.934692 0.000954 1.248029 -2.507055 -81.486397 1488.125488
28 1312.175781 -701.934692 0.000954 0.782427 -1.893105 -81.981491 1488.125488
[Head]
26 1406.159424 809.709290 0.001431 5.323421 -13.922590 2.349187 1622.625488
27 1406.159424 809.709290 0.001431 5.206534 -13.933574 1.922934 1622.625488
28 1406.159424 809.709290 0.001431 5.089722 -13.945401 1.496662 1622.625488
[Motor_Bone]
26 1158.364380 -417.834747 0.000477 -2.188163 -1.022762 -107.007042 1231.419434
27 1158.364380 -417.834747 0.000477 -2.074372 -0.843159 -106.828514 1231.419434
28 1158.364380 -417.834747 0.000477 -1.960022 -0.663910 -106.649628 1231.419434
[Ping_Mechanism]
26 1167.753540 -391.946411 71.448975 0.000103 -0.000053 82.120995 1233.845825
27 1169.477905 -394.416168 70.386589 0.000103 -0.000053 82.120995 1236.202637
28 1171.202393 -396.885986 69.324196 0.000103 -0.000053 82.120995 1238.563477
[BN_LookIK]
26 193.241119 1380.371704 -0.002861 0.000000 89.965736 -31.038179 1393.832153
27 193.241119 1380.371704 -0.002861 0.000000 89.965736 -31.038179 1393.832153
28 193.241119 1380.371704 -0.002861 0.000000 89.965736 -31.038179 1393.832153
[bottomMouth]
26 -435.092926 615.759399 -0.000954 -0.000022 0.000016 73.527184 753.966492
27 -435.092926 615.759399 -0.000954 -0.000022 0.000016 73.527184 753.966492
28 -435.092926 615.759399 -0.000954 -0.000022 0.000016 73.527184 753.966492
[L_Mouth01]
26 554.440979 7.658243 838.222046 150.204178 23.759130 109.605339 1005.027161
27 554.440979 7.658243 838.222046 150.204178 23.759130 109.605339 1005.027161
28 554.440979 7.658243 838.222046 150.204178 23.759130 109.605339 1005.027161
[L_mouthFront]
26 551.629089 934.514771 339.150421 0.000081 2.804060 79.119301 1136.941284
27 551.629089 934.514771 339.150421 0.000081 2.804060 79.119301 1136.941284
28 551.629089 934.514771 339.150421 0.000081 2.804060 79.119301 1136.941284
[mouthGun]
26 55.332661 1627.420898 0.000000 0.000023 0.000009 -11.038128 1628.361328
27 55.332661 1627.420898 0.000000 0.000023 0.000009 -11.038128 1628.361328
28 55.332661 1627.420898 0.000000 0.000023 0.000009 -11.038128 1628.361328
[R_Mouth01]
26 554.442383 7.659197 -838.223938 29.795891 -23.759109 109.605331 1005.029541
27 554.442383 7.659197 -838.223938 29.795891 -23.759109 109.605331 1005.029541
28 554.442383 7.659197 -838.223938 29.795891 -23.759109 109.605331 1005.029541
[R_mouthFront]
26 551.629089 934.514282 -339.151367 0.000029 -2.803930 79.119133 1136.941162
27 551.629089 934.514282 -339.151367 0.000029 -2.803930 79.119133 1136.941162
28 551.629089 934.514282 -339.151367 0.000029 -2.803930 79.119133 1136.941162
[TopMouth]
26 461.269867 -56.106091 -0.008583 -0.000059 -0.000268 92.025169 464.669525
27 461.269867 -56.106091 -0.008583 -0.000059 -0.000268 92.025169 464.669525
28 461.269867 -56.106091 -0.008583 -0.000059 -0.000268 92.025169 464.669525
[weapon_bone]
26 -987.239868 1448.372803 0.001431 0.000000 89.965736 -31.038221 1752.833740
27 -987.239868 1448.372803 0.001431 0.000000 89.965736 -31.038221 1752.833740
28 -987.239868 1448.372803 0.001431 0.000000 89.965736 -31.038221 1752.833740
